<?xml version="1.0" encoding="utf-8"?>
<!-- Generator: Adobe Illustrator 17.0.2, SVG Export Plug-In . SVG Version: 6.00 Build 0)  -->
<!DOCTYPE svg PUBLIC "-//W3C//DTD SVG 1.1//EN" "http://www.w3.org/Graphics/SVG/1.1/DTD/svg11.dtd">
<svg version="1.1" id="Layer_1" xmlns="http://www.w3.org/2000/svg" xmlns:xlink="http://www.w3.org/1999/xlink" x="0px" y="0px"
	 width="250px" height="250px" viewBox="0 0 250 250" enable-background="new 0 0 250 250" xml:space="preserve">
<g>
	<g>
		<path fill="#333333" d="M125,26.181c-54.575-0.002-98.82,44.241-98.82,98.82c0,54.575,44.247,98.818,98.82,98.818
			c54.577,0,98.82-44.241,98.82-98.818S179.575,26.181,125,26.181z M130.579,59.382c0-0.96,0.383-1.442,1.439-1.442h4.037
			c1.054,0,1.341,0.481,1.341,1.442v28.626h2.979l22.187-28.722c0.579-0.766,1.348-1.346,2.402-1.346h4.42
			c0.962,0,1.346,0.579,0.675,1.442l-24.284,31.219l-0.006,0.002l24.29,31.217c0.671,0.864,0.287,1.442-0.675,1.442h-4.42
			c-1.054,0-1.823-0.577-2.402-1.343l-22.204-28.724h-2.961v28.623c0,0.96-0.287,1.444-1.341,1.444h-4.037
			c-1.056,0-1.439-0.483-1.439-1.444V59.382z M83.137,71.197c0-7.686,4.991-14.028,20.75-14.028
			c15.944,0,20.841,6.343,20.841,14.028v38.805c0,7.684-4.897,14.026-20.841,14.026c-15.759,0-20.75-6.341-20.75-14.026V71.197z
			 M113.612,191.387c0,0.797-0.209,1.258-0.875,1.394c-0.035,0.009-0.065,0.02-0.105,0.022c-0.017,0.004-0.039,0.004-0.052,0.007
			c-0.083,0.011-0.161,0.019-0.248,0.019h-4.421c-1.058,0-1.825-0.575-2.404-1.341l-20.564-26.605l-9.925,12.882
			c-0.588,0.758-1.076,0.988-1.79,0.435l-2.731-2.106c-0.714-0.551-0.675-1.135-0.087-1.897l10.861-14.067h-0.004l0.575-0.743
			l22.666-29.364c0.152-0.2,0.305-0.353,0.455-0.47l0.544-0.699c0.577-0.769,1.344-1.346,2.402-1.346h0.322h4.035h0.063
			c0.078,0,0.152,0.011,0.222,0.02c0.026,0,0.057,0,0.083,0.004c0.033,0.004,0.065,0.015,0.094,0.022
			c0.675,0.135,0.884,0.592,0.884,1.394V191.387z M171.272,191.387c0,0.958-0.388,1.441-1.442,1.441h-3.845
			c-1.054,0-1.442-0.483-1.442-1.441v-49.565c-0.383,1.633-1.241,4.421-1.916,5.958L148.7,181.397
			c-0.388,0.962-0.962,1.442-1.925,1.442h-3.554c-0.963,0-1.437-0.479-1.825-1.442l-14.506-34.483
			c-0.383-0.867-1.058-2.883-1.629-4.995v49.469c0,0.958-0.383,1.441-1.346,1.441h-3.654c-1.054,0-1.437-0.483-1.437-1.441
			l-0.002-62.438c0-0.958,0.383-1.439,1.437-1.439h3.654c0.671,0,1.058,0.287,1.246,0.769l18.158,42.457
			c0.962,2.304,1.633,4.514,1.729,4.899c0.096-0.287,1.058-2.979,1.825-4.804l17.769-42.553c0.194-0.577,0.673-0.769,1.343-0.769
			h3.845c1.054,0,1.442,0.481,1.442,1.439L171.272,191.387z"/>
		<path fill="#333333" d="M103.887,118.168c10.184,0,14.025-3.649,14.025-9.222V72.253c0-5.572-3.841-9.222-14.025-9.222
			c-10.089,0-13.93,3.649-13.93,9.222v36.693C89.957,114.518,93.798,118.168,103.887,118.168z"/>
		<polygon fill="#333333" points="88.714,160.172 106.792,183.409 106.789,136.934 88.718,160.168 		"/>
	</g>
</g>
<text transform="matrix(1 0 0 1 2.5471 239.7611)" display="none"><tspan x="0" y="0" display="inline" fill="#499BD6" font-family="'BrandonGrotesque-Light'" font-size="334.1579" letter-spacing="-33">&amp;</tspan><tspan x="193.142" y="0" display="inline" fill="#636970" font-family="'BrandonGrotesque-Bold'" font-size="334.1579" letter-spacing="-33"> </tspan></text>
<text transform="matrix(1 0 0 1 713.511 166.7731)" display="none"><tspan x="0" y="0" display="inline" fill="#636970" font-family="'BrandonGrotesque-Bold'" font-size="130.6394" letter-spacing="-13">B </tspan><tspan x="83.346" y="0" display="inline" fill="#499BD6" font-family="'BrandonGrotesque-Light'" font-size="130.6394" letter-spacing="-13">&amp;</tspan><tspan x="158.854" y="0" display="inline" fill="#636970" font-family="'BrandonGrotesque-Bold'" font-size="130.6394" letter-spacing="-13"> G</tspan></text>
<g id="Layer_2" display="none">
</g>
<g id="_x35_5Gi1A.tif" display="none">
	
		<image display="inline" overflow="visible" width="522" height="397" id="Layer_0" xlink:href="A7BAF00B89608441.png"  transform="matrix(1 0 0 1 -214 -522)">
	</image>
</g>
<g display="none">
	<path display="inline" fill="#E95F5F" d="M232.161,50.041c3.22,0,6.839,2.44,6.839,5.661v135.376c0,3.22-3.512,5.922-6.732,5.922
		H17.922c-3.22,0-5.922-2.702-5.922-5.922V55.702C12,52.481,14.702,50,17.922,50H231 M232.268,39H17.922C8.576,39,1,46.356,1,55.702
		v135.376C1,200.424,8.576,208,17.922,208h214.346c9.346,0,17.732-7.576,17.732-16.922V55.702C250,46.356,241.442,39,232.096,39
		H232.268z"/>
	<rect id="Horizontal_1_" x="4" y="117" display="inline" fill="#E95F5F" width="244" height="11"/>
	<rect id="Vertical_2_" x="120" y="39" display="inline" fill="#E95F5F" width="11" height="166"/>
	<g id="Loops_2_" display="inline">
		<path id="Left_loop_2_" fill="#E95F5F" d="M105.825,76.488c-14.094,0-25.519,11.425-25.519,25.519
			c0,14.094,11.425,25.519,25.519,25.519s25.519-11.425,25.519-25.519C131.344,87.914,119.919,76.488,105.825,76.488z
			 M105.825,116.035c-7.747,0-14.027-6.28-14.027-14.027s6.28-14.027,14.027-14.027s14.027,6.28,14.027,14.027
			S113.572,116.035,105.825,116.035z"/>
		<path id="Right_loop_2_" fill="#E95F5F" d="M146.385,76.488c-14.094,0-25.519,11.425-25.519,25.519
			c0,14.094,11.425,25.519,25.519,25.519s25.519-11.425,25.519-25.519C171.905,87.914,160.479,76.488,146.385,76.488z
			 M146.385,116.035c-7.747,0-14.027-6.28-14.027-14.027s6.28-14.027,14.027-14.027s14.027,6.28,14.027,14.027
			S154.132,116.035,146.385,116.035z"/>
	</g>
	<g display="inline">
		<path fill="#E95F5F" d="M76.716,153.76c-1.491,0-2.994-0.058-4.505-0.176l0.863-11.049c12.168,0.955,23.624-2.898,32.254-10.834
			c8.57-7.879,13.832-19.184,14.818-31.835l11.049,0.863c-1.207,15.453-7.728,29.35-18.367,39.13
			C102.989,148.908,90.302,153.76,76.716,153.76z"/>
	</g>
	<g display="inline">
		<path fill="#E95F5F" d="M174.628,153.76c-13.586,0-26.271-4.852-36.114-13.901c-10.638-9.781-17.16-23.678-18.367-39.13
			l11.049-0.863c0.986,12.651,6.248,23.956,14.818,31.835c8.631,7.938,20.089,11.784,32.254,10.834l0.863,11.049
			C177.622,153.702,176.119,153.76,174.628,153.76z"/>
	</g>
</g>
</svg>
