<?xml version="1.0" encoding="UTF-8" standalone="no"?>
<svg width="19px" height="20px" viewBox="0 0 19 20" version="1.1" xmlns="http://www.w3.org/2000/svg" xmlns:xlink="http://www.w3.org/1999/xlink" xmlns:sketch="http://www.bohemiancoding.com/sketch/ns">
    <!-- Generator: Sketch 3.0.1 (7597) - http://www.bohemiancoding.com/sketch -->
    <title>dribbble</title>
    <description>Created with Sketch.</description>
    <defs></defs>
    <g id="Page-1" stroke="none" stroke-width="1" fill="none" fill-rule="evenodd" sketch:type="MSPage">
        <g id="Desktop" sketch:type="MSArtboardGroup" transform="translate(-1291.000000, -2122.000000)" fill="#000000">
            <g id="Group" sketch:type="MSLayerGroup" transform="translate(129.000000, 2074.000000)">
                <path d="M1171.50002,48.9999502 C1166.24422,48.9999502 1162,53.2441743 1162,58.4999751 C1162,63.7557759 1166.24422,68 1171.50002,68 C1176.75583,68 1181.00005,63.7557759 1181.00005,58.4999751 C1181.00005,53.2441743 1176.75583,48.9999502 1171.50002,48.9999502 Z M1177.70143,53.5740362 C1178.735,54.8934841 1179.37273,56.542794 1179.41671,58.3460395 C1177.50351,57.9062235 1175.67828,57.8182603 1173.96299,58.0821499 C1173.76508,57.5983524 1173.54517,57.1145548 1173.32526,56.6087664 C1175.10652,55.8830701 1176.55791,54.8714933 1177.70143,53.5740362 Z M1171.50002,50.5832877 C1173.4792,50.5832877 1175.30443,51.308984 1176.68985,52.5184779 C1175.65629,53.7279718 1174.33684,54.6515854 1172.66554,55.3333001 C1171.85188,53.8379258 1170.88428,52.2985699 1169.67479,50.8031956 C1170.26854,50.6492601 1170.86229,50.5832877 1171.50002,50.5832877 Z M1168.04747,51.3749564 C1169.27895,52.8703307 1170.29053,54.3876958 1171.10419,55.8610793 C1169.10303,56.43284 1166.68404,56.7407112 1163.75926,56.8066836 C1164.28704,54.4096866 1165.89237,52.4085239 1168.04747,51.3749564 Z M1163.58334,58.4999751 L1163.58334,58.2580763 C1166.85997,58.2140947 1169.54284,57.8402511 1171.78591,57.1805272 C1171.98382,57.5983524 1172.18174,58.0381683 1172.35767,58.4559935 C1172.20373,58.4999751 1172.04979,58.5439567 1171.89586,58.6099291 C1169.38891,59.489561 1167.27779,61.2268341 1165.60649,63.7777667 C1164.35302,62.3703556 1163.58334,60.5231285 1163.58334,58.4999751 Z M1171.50002,66.4166625 C1169.67479,66.4166625 1168.00349,65.8009202 1166.68404,64.7893434 C1168.48729,61.9525304 1170.66437,60.4571561 1172.90744,59.819423 C1173.6991,62.0185028 1174.1829,64.0636471 1174.46878,65.8449018 C1173.56716,66.2187453 1172.55558,66.4166625 1171.50002,66.4166625 Z M1175.98615,65.0312422 C1175.67828,63.3599415 1175.23846,61.4687329 1174.51276,59.4675702 C1176.18406,59.269653 1177.83337,59.4455794 1179.30676,59.7974322 C1178.95491,61.9745212 1177.72342,63.8217483 1175.98615,65.0312422 Z" id="dribbble" sketch:type="MSShapeGroup"></path>
            </g>
        </g>
    </g>
</svg>