<?xml version="1.0" encoding="UTF-8" standalone="no"?>
<svg width="138px" height="30px" viewBox="0 0 138 30" version="1.1" xmlns="http://www.w3.org/2000/svg" xmlns:xlink="http://www.w3.org/1999/xlink" xmlns:sketch="http://www.bohemiancoding.com/sketch/ns">
    <!-- Generator: Sketch 3.0 (7574) - http://www.bohemiancoding.com/sketch -->
    <title>Kevin Clark 2</title>
    <description>Created with Sketch.</description>
    <defs></defs>
    <g id="Page-1-Copy" stroke="none" stroke-width="1" fill="none" fill-rule="evenodd" sketch:type="MSPage">
        <g id="iPad---Portrait" sketch:type="MSArtboardGroup" transform="translate(-247.000000, -93.000000)" fill="#000000">
            <path d="M260.32,122 L255.68,107.76 L260.48,94 L256,94 L251.56,107.52 L251.56,94 L247.28,94 L247.28,122 L251.56,122 L251.56,108.28 L255.72,122 L260.32,122 Z M261.84,94 L261.84,122 L271.44,122 L271.44,118.12 L266.12,118.12 L266.12,109.68 L271.16,109.68 L271.16,105.8 L266.12,105.8 L266.12,97.88 L271.36,97.88 L271.36,94 L261.84,94 Z M282.16,122.04 L286.32,94 L282.24,94 L279.64,114.88 L277.12,94 L272.8,94 L276.92,122.04 L282.16,122.04 Z M292.36,94 L288.08,94 L288.08,122 L292.36,122 L292.36,94 Z M307.76,122 L307.76,94 L303.92,94 L303.92,106.6 L303.96,111.28 L299.96,94 L294.96,94 L294.96,122 L298.8,122 L298.8,108.08 L298.76,103.16 L303.12,122 L307.76,122 Z M323.64,110.52 L323.64,116.84 C323.64,117.96 323.12,118.48 322.04,118.48 L321.24,118.48 C320.12,118.48 319.6,117.96 319.6,116.84 L319.6,99.16 C319.6,98.04 320.12,97.52 321.24,97.52 L321.96,97.52 C323.04,97.52 323.56,98.04 323.56,99.16 L323.56,104.64 L327.76,104.64 L327.76,98.92 C327.76,95.44 326.08,93.76 322.6,93.76 L320.52,93.76 C317.04,93.76 315.32,95.48 315.32,98.96 L315.32,117.04 C315.32,120.52 317.04,122.24 320.52,122.24 L322.64,122.24 C326.12,122.24 327.84,120.52 327.84,117.04 L327.84,110.52 L323.64,110.52 Z M330.24,94 L330.24,122 L339.24,122 L339.24,118.12 L334.52,118.12 L334.52,94 L330.24,94 Z M349.84,93.96 L344.16,93.96 L340.16,122 L344.12,122 L344.64,117.6 L349.08,117.6 L349.64,122 L353.88,122 L349.84,93.96 Z M346.84,99.64 L348.6,113.8 L345.12,113.8 L346.84,99.64 Z M365.44,108.8 C367,108.16 367.88,106.96 367.88,104.48 L367.88,99.2 C367.88,95.72 366.16,94 362.68,94 L355.64,94 L355.64,122 L359.92,122 L359.92,110.76 L361.84,110.76 C363.08,110.76 363.64,111.32 363.64,112.56 L363.64,122 L367.92,122 L367.92,112.48 C367.92,110.36 367.2,109.28 365.44,108.8 Z M363.6,99.4 L363.6,105.32 C363.6,106.48 363.04,107.04 361.84,107.04 L359.92,107.04 L359.92,97.8 L362,97.8 C363.08,97.8 363.6,98.32 363.6,99.4 Z M383.44,122 L378.8,107.76 L383.6,94 L379.12,94 L374.68,107.52 L374.68,94 L370.4,94 L370.4,122 L374.68,122 L374.68,108.28 L378.84,122 L383.44,122 Z" id="Kevin-Clark-2" sketch:type="MSShapeGroup"></path>
        </g>
    </g>
</svg>