<?xml version="1.0" encoding="UTF-8" standalone="no"?>
<svg width="20px" height="18px" viewBox="0 0 20 18" version="1.1" xmlns="http://www.w3.org/2000/svg" xmlns:xlink="http://www.w3.org/1999/xlink" xmlns:sketch="http://www.bohemiancoding.com/sketch/ns">
    <!-- Generator: Sketch 3.0.1 (7597) - http://www.bohemiancoding.com/sketch -->
    <title>twitter</title>
    <description>Created with Sketch.</description>
    <defs></defs>
    <g id="Page-1" stroke="none" stroke-width="1" fill="none" fill-rule="evenodd" sketch:type="MSPage">
        <g id="Desktop" sketch:type="MSArtboardGroup" transform="translate(-1252.000000, -2123.000000)" fill="#000000">
            <g id="Group" sketch:type="MSLayerGroup" transform="translate(129.000000, 2074.000000)">
                <path d="M1143.00005,51.5879199 C1142.25931,51.9119948 1141.47227,52.1434769 1140.63894,52.2360698 C1141.49542,51.7268092 1142.14357,50.9166219 1142.4445,49.9675453 C1141.65746,50.4305095 1140.77782,50.7777326 1139.8519,50.9629183 C1139.08801,50.1758792 1138.02319,49.6666186 1136.84263,49.6666186 C1134.5741,49.6666186 1132.7454,51.4953271 1132.7454,53.7638516 C1132.7454,54.0879265 1132.76854,54.4120014 1132.83799,54.7129281 C1129.4352,54.5277424 1126.42593,52.9768125 1124.38889,50.4999541 C1124.04167,51.1018075 1123.83334,51.7268092 1123.83334,52.4907001 C1123.83334,53.9027408 1124.55093,55.1527441 1125.66204,55.8934868 C1124.99075,55.8703386 1124.36574,55.6851529 1123.81019,55.3842262 L1123.81019,55.4305226 C1123.81019,57.4212686 1125.22223,59.0879396 1127.09723,59.4583109 C1126.75001,59.5509038 1126.37964,59.5972002 1126.00927,59.5972002 C1125.75464,59.5972002 1125.50001,59.574052 1125.24538,59.5277556 C1125.75464,61.1481302 1127.28242,62.351837 1129.06483,62.3749852 C1127.67594,63.4860993 1125.89353,64.3194348 1123.97222,64.3194348 C1123.64815,64.3194348 1123.32407,64.2962866 1123,64.2499902 C1124.80556,65.4074006 1126.98149,65.9166612 1129.29631,65.9166612 C1136.84263,65.9166612 1140.96301,59.6666448 1140.96301,54.2499639 L1140.96301,53.7175551 C1141.75005,53.1388499 1142.4445,52.4212554 1143.00005,51.5879199 L1143.00005,51.5879199 Z" id="twitter" sketch:type="MSShapeGroup"></path>
            </g>
        </g>
    </g>
</svg>