<svg width="21px" height="21px" xmlns="http://www.w3.org/2000/svg" fill="#000"><path d="M10.50002,1 C5.24422,1 1,5.2442241 1,10.5000249 C1,15.7558257 5.24422,20.0000498 10.50002,20.0000498 C15.75583,20.0000498 20.00005,15.7558257 20.00005,10.5000249 C20.00005,5.2442241 15.75583,1 10.50002,1 L10.50002,1 Z M16.70143,5.574086 C17.735,6.8935339 18.37273,8.5428438 18.41671,10.3460893 C16.50351,9.9062733 14.67828,9.8183101 12.96299,10.0821997 C12.76508,9.5984022 12.54517,9.1146046 12.32526,8.6088162 C14.10652,7.8831199 15.55791,6.8715431 16.70143,5.574086 L16.70143,5.574086 Z M10.50002,2.5833375 C12.4792,2.5833375 14.30443,3.3090338 15.68985,4.5185277 C14.65629,5.7280216 13.33684,6.6516352 11.66554,7.3333499 C10.85188,5.8379756 9.88428,4.2986197 8.67479,2.8032454 C9.26854,2.6493099 9.86229,2.5833375 10.50002,2.5833375 L10.50002,2.5833375 Z M7.04747,3.3750062 C8.27895,4.8703805 9.29053,6.3877456 10.10419,7.8611291 C8.10303,8.4328898 5.68404,8.740761 2.75926,8.8067334 C3.28704,6.4097364 4.89237,4.4085737 7.04747,3.3750062 L7.04747,3.3750062 Z M2.58334,10.5000249 L2.58334,10.2581261 C5.85997,10.2141445 8.54284,9.8403009 10.78591,9.180577 C10.98382,9.5984022 11.18174,10.0382181 11.35767,10.4560433 C11.20373,10.5000249 11.04979,10.5440065 10.89586,10.6099789 C8.38891,11.4896108 6.27779,13.2268839 4.60649,15.7778165 C3.35302,14.3704054 2.58334,12.5231783 2.58334,10.5000249 L2.58334,10.5000249 Z M10.50002,18.4167123 C8.67479,18.4167123 7.00349,17.80097 5.68404,16.7893932 C7.48729,13.9525802 9.66437,12.4572059 11.90744,11.8194728 C12.6991,14.0185526 13.1829,16.0636969 13.46878,17.8449516 C12.56716,18.2187951 11.55558,18.4167123 10.50002,18.4167123 L10.50002,18.4167123 Z M14.98615,17.031292 C14.67828,15.3599913 14.23846,13.4687827 13.51276,11.46762 C15.18406,11.2697028 16.83337,11.4456292 18.30676,11.797482 C17.95491,13.974571 16.72342,15.8217981 14.98615,17.031292 L14.98615,17.031292 Z"></path></svg>
