<svg width="138" height="30" xmlns="http://www.w3.org/2000/svg" fill="#333"><path d="M13.32 29L8.68 14.76 13.48 1H9L4.56 14.52V1H.28v28h4.28V15.28L8.72 29h4.6zm1.52-28v28h9.6v-3.88h-5.32v-8.44h5.04V12.8h-5.04V4.88h5.24V1h-9.52zm20.32 28.04L39.32 1h-4.08l-2.6 20.88L30.12 1H25.8l4.12 28.04h5.24zM45.36 1h-4.28v28h4.28V1zm15.4 28V1h-3.84v12.6l.04 4.68-4-17.28h-5v28h3.84V15.08l-.04-4.92L56.12 29h4.64zm15.88-11.48v6.32c0 1.12-.52 1.64-1.6 1.64h-.8c-1.12 0-1.64-.52-1.64-1.64V6.16c0-1.12.52-1.64 1.64-1.64h.72c1.08 0 1.6.52 1.6 1.64v5.48h4.2V5.92c0-3.48-1.68-5.16-5.16-5.16h-2.08c-3.48 0-5.2 1.72-5.2 5.2v18.08c0 3.48 1.72 5.2 5.2 5.2h2.12c3.48 0 5.2-1.72 5.2-5.2v-6.52h-4.2zM83.24 1v28h9v-3.88h-4.72V1h-4.28zm19.6-.04h-5.68l-4 28.04h3.96l.52-4.4h4.44l.56 4.4h4.24L102.84.96zm-3 5.68l1.76 14.16h-3.48l1.72-14.16zm18.6 9.16c1.56-.64 2.44-1.84 2.44-4.32V6.2c0-3.48-1.72-5.2-5.2-5.2h-7.04v28h4.28V17.76h1.92c1.24 0 1.8.56 1.8 1.8V29h4.28v-9.52c0-2.12-.72-3.2-2.48-3.68zm-1.84-9.4v5.92c0 1.16-.56 1.72-1.76 1.72h-1.92V4.8H115c1.08 0 1.6.52 1.6 1.6zM136.44 29l-4.64-14.24L136.6 1h-4.48l-4.44 13.52V1h-4.28v28h4.28V15.28L131.84 29h4.6z" /></svg>
