<svg width="20px" height="17px" xmlns="http://www.w3.org/2000/svg"><path d="M20.00005,1.9213013 C19.25931,2.2453762 18.47227,2.4768583 17.63894,2.5694512 C18.49542,2.0601906 19.14357,1.2500033 19.4445,0.3009267 C18.65746,0.7638909 17.77782,1.111114 16.8519,1.2962997 C16.08801,0.5092606 15.02319,-7.10542736e-15 13.84263,-7.10542736e-15 C11.5741,-7.10542736e-15 9.7454,1.8287085 9.7454,4.097233 C9.7454,4.4213079 9.76854,4.7453828 9.83799,5.0463095 C6.4352,4.8611238 3.42593,3.3101939 1.38889,0.8333355 C1.04167,1.4351889 0.83334,2.0601906 0.83334,2.8240815 C0.83334,4.2361222 1.55093,5.4861255 2.66204,6.2268682 C1.99075,6.20372 1.36574,6.0185343 0.81019,5.7176076 L0.81019,5.763904 C0.81019,7.75465 2.22223,9.421321 4.09723,9.7916923 C3.75001,9.8842852 3.37964,9.9305816 3.00927,9.9305816 C2.75464,9.9305816 2.50001,9.9074334 2.24538,9.861137 C2.75464,11.4815116 4.28242,12.6852184 6.06483,12.7083666 C4.67594,13.8194807 2.89353,14.6528162 0.97222,14.6528162 C0.64815,14.6528162 0.32407,14.629668 0,14.5833716 C1.80556,15.740782 3.98149,16.2500426 6.29631,16.2500426 C13.84263,16.2500426 17.96301,10.0000262 17.96301,4.5833453 L17.96301,4.0509365 C18.75005,3.4722313 19.4445,2.7546368 20.00005,1.9213013 L20.00005,1.9213013 L20.00005,1.9213013 Z"></path></svg>
