<?xml version="1.0" encoding="utf-8"?>
<!-- Generator: Adobe Illustrator 15.1.0, SVG Export Plug-In . SVG Version: 6.00 Build 0)  -->
<!DOCTYPE svg PUBLIC "-//W3C//DTD SVG 1.1//EN" "http://www.w3.org/Graphics/SVG/1.1/DTD/svg11.dtd">
<svg version="1.1" id="Layer_59" xmlns="http://www.w3.org/2000/svg" xmlns:xlink="http://www.w3.org/1999/xlink" x="0px" y="0px"
	 width="1487px" height="314px" viewBox="0 0 1487 314" enable-background="new 0 0 1487 314" xml:space="preserve">
<g>
	<g>
		<defs>
			<rect id="SVGID_1_" x="72.996" y="-747.002" width="1426.004" height="1426.004"/>
		</defs>
		<clipPath id="SVGID_2_">
			<use xlink:href="#SVGID_1_"  overflow="visible"/>
		</clipPath>
		<polygon clip-path="url(#SVGID_2_)" fill="#F2F2F2" points="214.845,599.405 214.845,586.037 547.032,586.037 547.032,271.881 
			688.352,114.636 1007.454,586.037 1389.986,586.037 910.415,-112.316 1369.771,-634.077 995.863,-634.077 547.032,-105.164 
			547.032,-634.077 228.213,-634.077 228.213,599.405 214.845,599.405 214.845,586.037 214.845,599.405 201.476,599.405 
			201.476,-660.815 573.77,-660.815 573.77,-177.996 983.485,-660.815 1428.935,-660.815 944.247,-110.282 1440.783,612.774 
			993.266,612.774 685.38,157.943 573.77,282.13 573.77,612.774 201.476,612.774 201.476,599.405 		"/>
		<polyline clip-path="url(#SVGID_2_)" fill="#F2F2F2" points="384.935,-636.487 384.935,466.884 367.109,466.884 367.109,-636.487 
					"/>
		<polyline clip-path="url(#SVGID_2_)" fill="#F2F2F2" points="1192.928,-640.139 384.432,258.942 371.178,247.023 
			1179.674,-652.058 		"/>
		<polyline clip-path="url(#SVGID_2_)" fill="#F2F2F2" points="1113.714,471.858 714.433,-121.716 729.223,-131.665 
			1128.504,461.909 		"/>
		<polyline clip-path="url(#SVGID_2_)" fill="#F2F2F2" points="381.618,473.82 224.758,600.378 213.565,586.505 370.426,459.947 		
			"/>
		<polyline clip-path="url(#SVGID_2_)" fill="#F2F2F2" points="379.393,456.048 562.991,586.17 552.684,600.713 369.086,470.59 		
			"/>
		<polyline clip-path="url(#SVGID_2_)" fill="#F2F2F2" points="993.417,589.107 1112.845,462.55 1125.809,474.783 1006.381,601.341 
					"/>
		<polyline clip-path="url(#SVGID_2_)" fill="#F2F2F2" points="1122.844,460.478 1413.392,585.252 1406.357,601.631 
			1115.81,476.855 		"/>
		<polyline clip-path="url(#SVGID_2_)" fill="#F2F2F2" points="727.108,-123.817 695.023,136.429 677.332,134.248 709.417,-125.999 
					"/>
		<polyline clip-path="url(#SVGID_2_)" fill="#F2F2F2" points="560.524,285.025 380.491,267.2 382.248,249.462 562.281,267.287 		
			"/>
		<polyline clip-path="url(#SVGID_2_)" fill="#F2F2F2" points="569.461,-142.492 387.646,242.529 371.528,234.918 553.343,-150.104 
					"/>
	</g>
</g>
<rect x="93" y="33" display="none" fill="#FFFFFF" stroke="#000000" stroke-miterlimit="10" width="1340" height="226"/>
</svg>
