<?xml version="1.0" encoding="utf-8"?>
<!-- Generator: Adobe Illustrator 15.1.0, SVG Export Plug-In . SVG Version: 6.00 Build 0)  -->
<!DOCTYPE svg PUBLIC "-//W3C//DTD SVG 1.1//EN" "http://www.w3.org/Graphics/SVG/1.1/DTD/svg11.dtd">
<svg version="1.1" id="Layer_1" xmlns="http://www.w3.org/2000/svg" xmlns:xlink="http://www.w3.org/1999/xlink" x="0px" y="0px"
	 width="137.677px" height="29.75px" viewBox="0 0 137.677 29.75" enable-background="new 0 0 137.677 29.75" xml:space="preserve">
<g>
	<path fill="#333333" d="M9.718,28.917L5.559,15.199v13.718H1.28V0.921h4.279v13.518L9.999,0.921h4.479L9.678,14.679l4.639,14.238
		H9.718z"/>
	<path fill="#333333" d="M25.358,0.921v3.879h-5.239v7.918h5.039v3.879h-5.039v8.438h5.319v3.879H15.84V0.921H25.358z"/>
	<path fill="#333333" d="M36.239,0.921h4.039l-4.119,28.035h-5.239L26.8,0.921h4.319l2.56,20.636L36.239,0.921z"/>
	<path fill="#333333" d="M46.359,28.917H42.08V0.921h4.279V28.917z"/>
	<path fill="#333333" d="M57.918,0.921h3.839v27.995h-4.639L52.759,10.04l0.04,18.877h-3.839V0.921h4.999l4,17.397L57.918,0.921z"/>
	<path fill="#333333" d="M81.837,17.438v6.519c0,3.479-1.72,5.199-5.199,5.199h-2.12c-3.479,0-5.199-1.72-5.199-5.199V5.88
		c0-3.479,1.72-5.199,5.199-5.199h2.08c3.479,0,5.159,1.68,5.159,5.159v5.719h-4.199V6.081c0-1.12-0.52-1.64-1.6-1.64h-0.72
		c-1.12,0-1.64,0.52-1.64,1.64v17.677c0,1.12,0.52,1.64,1.64,1.64h0.8c1.08,0,1.6-0.52,1.6-1.64v-6.319H81.837z"/>
	<path fill="#333333" d="M88.518,0.921v24.116h4.719v3.879h-8.999V0.921H88.518z"/>
	<path fill="#333333" d="M107.875,28.917h-4.239l-0.56-4.399h-4.439l-0.52,4.399h-3.959l4-28.035h5.679L107.875,28.917z
		 M99.117,20.718h3.479l-1.72-13.998L99.117,20.718z"/>
	<path fill="#333333" d="M121.915,19.398v9.519h-4.279v-9.438c0-1.24-0.56-1.8-1.8-1.8h-1.919v11.238h-4.279V0.921h7.039
		c3.479,0,5.199,1.72,5.199,5.199v5.279c0,2.479-0.88,3.679-2.439,4.319C121.195,16.199,121.915,17.278,121.915,19.398z
		 M115.996,4.721h-2.08v9.238h1.919c1.2,0,1.76-0.56,1.76-1.72V6.32C117.596,5.24,117.076,4.721,115.996,4.721z"/>
	<path fill="#333333" d="M132.835,28.917l-4.159-13.718v13.718h-4.279V0.921h4.279v13.518l4.439-13.518h4.479l-4.799,13.757
		l4.639,14.238H132.835z"/>
</g>
</svg>
